# File created by Blade
# Date/Time:  Fri Jan 16 15:45:56 2015
#---------------------------------------------------------
:version 1.10
:name HOM
:units
  mass 1.0
  length 1.000000
  angle deg
:documentation
     Acclaim Skeleton File
:root
   axis xyz
   order TX TY TZ RX RY RZ
   position 0.000000 0.000000 0.000000
   orientation 0 0 0
:bonedata
   begin
      id 1
      name Spine_dum
      direction 0.000000 1.000000 0.000000
      length 7.170412
      axis 0.0 0.0 0.0 xyz
   end
   begin
      id 2
      name LeftUpLeg_dum
      direction 1.000000 0.000000 0.000000
      length 4.318350
      axis 0.0 0.0 0.0 xyz
   end
   begin
      id 3
      name RightUpLeg_dum
      direction -1.000000 0.000000 0.000000
      length 4.318350
      axis 0.0 0.0 0.0 xyz
   end
   begin
      id 4
      name Spine
      direction 0.000000 1.000000 0.000000
      length 0.000000
      axis 0.0 0.0 0.0 xyz
      dof rx ry rz
   end
   begin
      id 5
      name Spine_dum1
      direction 0.000000 1.000000 0.000000
      length 14.276153
      axis 0.0 0.0 0.0 xyz
   end
   begin
      id 6
      name Spine_dum2
      direction 0.000000 1.000000 0.000000
      length 10.718243
      axis 0.0 0.0 0.0 xyz
   end
   begin
      id 7
      name Spine_dum3
      direction 0.000000 1.000000 0.000000
      length 10.718243
      axis 0.0 0.0 0.0 xyz
   end
   begin
      id 8
      name Head
      direction 0.000000 1.000000 0.000000
      length 4.527550
      axis 0.0 0.0 0.0 xyz
      dof rx ry rz
   end
   begin
      id 9
      name LeftShoulder
      direction 1.000000 0.000000 0.000000
      length 7.058872
      axis 0.0 0.0 -90.0 xyz
      dof rx ry rz
   end
   begin
      id 10
      name LeftArm
      direction 1.000000 0.000000 0.000000
      length 10.955525
      axis 0.0 0.0 -90.0 xyz
      dof rx ry rz
   end
   begin
      id 11
      name LeftForeArm
      direction 1.000000 0.000000 0.000000
      length 8.193716
      axis 0.0 0.0 -90.0 xyz
      dof ry rz rx
   end
   begin
      id 12
      name LeftHand
      direction 0.000000 0.000000 0.000000
      length 0.000000
      axis 0.0 0.0 -90.0 xyz
      dof rx ry rz
   end
   begin
      id 13
      name LeftHand_dum1
      direction 0.000000 0.000000 0.000000
      length 0.000000
      axis 0.0 0.0 -90.0 xyz
   end
   begin
      id 14
      name LeftHand_dum2
      direction 1.000000 0.000000 0.000000
      length 3.937000
      axis 0.0 0.0 -90.0 xyz
   end
   begin
      id 15
      name LeftHandThumb1
      direction 0.000000 0.000000 1.000000
      length 3.937000
      axis 0.0 0.0 -90.0 xyz
      dof rx rz ry
   end
   begin
      id 16
      name RightShoulder
      direction -1.000000 0.000000 0.000000
      length 7.058872
      axis 0.0 0.0 90.0 xyz
      dof rx ry rz
   end
   begin
      id 17
      name RightArm
      direction -1.000000 0.000000 0.000000
      length 10.955525
      axis 0.0 0.0 90.0 xyz
      dof rx ry rz
   end
   begin
      id 18
      name RightForeArm
      direction -1.000000 0.000000 0.000000
      length 8.193716
      axis 0.0 0.0 90.0 xyz
      dof ry rz rx
   end
   begin
      id 19
      name RightHand
      direction 0.000000 0.000000 0.000000
      length 0.000000
      axis 0.0 0.0 90.0 xyz
      dof rx ry rz
   end
   begin
      id 20
      name RightHand_dum1
      direction 0.000000 0.000000 0.000000
      length 0.000000
      axis 0.0 0.0 90.0 xyz
   end
   begin
      id 21
      name RightHand_dum2
      direction -1.000000 0.000000 0.000000
      length 3.937000
      axis 0.0 0.0 90.0 xyz
   end
   begin
      id 22
      name RightHandThumb1
      direction 0.000000 0.000000 1.000000
      length 3.937000
      axis 0.0 0.0 90.0 xyz
      dof rx rz ry
   end
   begin
      id 23
      name LeftUpLeg
      direction 0.000000 -1.000000 0.000000
      length 17.323638
      axis 0.0 0.0 0.0 xyz
      dof rx ry rz
   end
   begin
      id 24
      name LeftLeg
      direction 0.000000 -1.000000 0.000000
      length 16.270368
      axis 0.0 0.0 0.0 xyz
      dof rx ry rz
   end
   begin
      id 25
      name LeftFoot
      direction 0.000000 -0.258819 0.965926
      length 4.922846
      axis 15.0 0.0 0.0 xyz
      dof rx ry rz
   end
   begin
      id 26
      name LeftToeBase
      direction 0.000000 0.000000 1.000000
      length 2.952750
      axis 0.0 0.0 0.0 xyz
      dof rx ry rz
   end
   begin
      id 27
      name RightUpLeg
      direction 0.000000 -1.000000 0.000000
      length 17.323638
      axis 0.0 0.0 0.0 xyz
      dof rx ry rz
   end
   begin
      id 28
      name RightLeg
      direction 0.000000 -1.000000 0.000000
      length 16.270368
      axis 0.0 0.0 0.0 xyz
      dof rx ry rz
   end
   begin
      id 29
      name RightFoot
      direction 0.000000 -0.258819 0.965926
      length 4.922846
      axis 15.0 0.0 0.0 xyz
      dof rx ry rz
   end
   begin
      id 30
      name RightToeBase
      direction 0.000000 0.000000 1.000000
      length 2.952750
      axis 0.0 0.0 0.0 xyz
      dof rx ry rz
   end
:hierarchy
   begin
      root Spine_dum LeftUpLeg_dum RightUpLeg_dum
      Spine_dum Spine
      LeftUpLeg_dum LeftUpLeg
      RightUpLeg_dum RightUpLeg
      Spine Spine_dum1 Spine_dum2 Spine_dum3
      Spine_dum1 Head
      Spine_dum2 LeftShoulder
      Spine_dum3 RightShoulder
      LeftShoulder LeftArm
      LeftArm LeftForeArm
      LeftForeArm LeftHand
      LeftHand LeftHand_dum1 LeftHand_dum2
      LeftHand_dum1 LeftHandThumb1
      RightShoulder RightArm
      RightArm RightForeArm
      RightForeArm RightHand
      RightHand RightHand_dum1 RightHand_dum2
      RightHand_dum1 RightHandThumb1
      LeftUpLeg LeftLeg
      LeftLeg LeftFoot
      LeftFoot LeftToeBase
      RightUpLeg RightLeg
      RightLeg RightFoot
      RightFoot RightToeBase
   end

# File created by Blade
# Date/Time:  Fri Jan 16 15:45:48 2015
# Frame Rate: 120.000 fps
#------------------------------------------------------
:FULLY-SPECIFIED
:DEGREES
3030
root -6.158309 35.144984 -9.383813 0.067145 11.439774 -3.594745
Spine -9.227172 -2.728449 1.668849
Head -0.656941 -37.335963 1.903031
LeftShoulder -21.419080 12.211363 -15.034623
LeftArm 19.180008 1.525997 -68.845967
LeftForeArm 13.913693 -0.000000 12.940270
LeftHand 2.173145 0.000000 -6.900857
LeftHandThumb1 -26.253704 0.000000 33.147579
RightShoulder -12.362202 22.252129 -39.273037
RightArm 37.676375 42.045794 -7.720383
RightForeArm -31.119210 -0.000000 16.345005
RightHand -4.891312 -0.000000 9.096353
RightHandThumb1 -24.326973 -0.000000 -32.862282
LeftUpLeg 6.649808 3.386740 6.040034
LeftLeg -8.650575 -0.000000 0.000000
LeftFoot -13.097321 21.768431 -9.313525
LeftToeBase 22.363989 -0.000000 -0.000000
RightUpLeg 9.500778 -12.910828 2.053172
RightLeg -4.583732 -0.000000 0.000000
RightFoot -8.868212 -33.587940 6.233902
RightToeBase 13.406040 -0.000000 -0.000000
3031
root -6.162503 35.145691 -9.382190 0.065557 11.382269 -3.596665
Spine -9.193261 -2.783259 1.648047
Head -0.690718 -37.022556 2.168392
LeftShoulder -21.447772 12.198024 -15.039873
LeftArm 19.184721 1.525591 -68.855171
LeftForeArm 13.977807 0.000000 12.895905
LeftHand 2.191023 -0.000000 -6.918542
LeftHandThumb1 -26.253704 0.000000 33.147579
RightShoulder -12.424104 22.271909 -39.275688
RightArm 37.865192 42.080256 -7.822596
RightForeArm -31.340259 -0.000000 16.385503
RightHand -5.018673 -0.000000 8.799723
RightHandThumb1 -24.326973 -0.000000 -32.862282
LeftUpLeg 6.653213 3.434358 6.049126
LeftLeg -8.622260 -0.000000 0.000000
LeftFoot -13.122423 21.773954 -9.353243
LeftToeBase 22.306920 -0.000000 -0.000000
RightUpLeg 9.490607 -12.873802 2.060247
RightLeg -4.569567 -0.000000 0.000000
RightFoot -8.867191 -33.569429 6.227193
RightToeBase 13.400112 -0.000000 -0.000000
3032
root -6.166658 35.145608 -9.380188 0.065249 11.311751 -3.607913
Spine -9.161520 -2.838630 1.638543
Head -0.727934 -36.687714 2.446865
LeftShoulder -21.510537 12.190536 -15.043839
LeftArm 19.195616 1.580300 -68.867512
LeftForeArm 13.992456 -0.000000 12.880657
LeftHand 2.114069 0.000000 -7.144520
LeftHandThumb1 -26.253704 0.000000 33.147579
RightShoulder -12.455533 22.239223 -39.243891
RightArm 37.949827 42.058882 -8.106386
RightForeArm -31.382400 0.000000 16.338121
RightHand -5.147103 0.000000 8.544044
RightHandThumb1 -24.326973 -0.000000 -32.862282
LeftUpLeg 6.663859 3.526122 6.069775
LeftLeg -8.619268 -0.000000 0.000000
LeftFoot -13.165006 21.798385 -9.218873
LeftToeBase 22.614781 -0.000000 -0.000000
RightUpLeg 9.476715 -12.836365 2.074712
RightLeg -4.551539 -0.000000 0.000000
RightFoot -8.862213 -33.530612 6.221725
RightToeBase 13.350216 -0.000000 -0.000000
3033
root -6.171239 35.145926 -9.378864 0.064130 11.248820 -3.616199
Spine -9.123715 -2.867893 1.612588
Head -0.779071 -36.407537 2.755796
LeftShoulder -21.539979 12.201918 -15.053819
LeftArm 19.229498 1.564389 -68.889592
LeftForeArm 14.119091 -0.000000 12.860447
LeftHand 2.056832 -0.000000 -7.139514
LeftHandThumb1 -26.253704 0.000000 33.147579
RightShoulder -12.572658 22.222706 -39.289310
RightArm 38.223010 42.179235 -8.011078
RightForeArm -31.702394 -0.000000 16.381473
RightHand -5.132648 -0.000000 8.104387
RightHandThumb1 -24.326973 -0.000000 -32.862282
LeftUpLeg 6.671181 3.594854 6.086666
LeftLeg -8.604273 -0.000000 0.000000
LeftFoot -13.190730 21.787984 -9.245433
LeftToeBase 22.629098 -0.000000 -0.000000
RightUpLeg 9.469511 -12.812187 2.087023
RightLeg -4.547683 -0.000000 0.000000
RightFoot -8.846174 -33.508370 6.187243
RightToeBase 13.368365 -0.000000 -0.000000
3034
root -6.176300 35.146201 -9.378033 0.071559 11.172148 -3.626894
Spine -9.099964 -2.890167 1.594363
Head -0.816825 -36.080844 3.045933
LeftShoulder -21.551408 12.176231 -15.053512
LeftArm 19.214192 1.644862 -68.867894
LeftForeArm 14.080976 -0.000000 12.829442
LeftHand 2.054964 -0.000000 -7.082241
LeftHandThumb1 -26.253704 0.000000 33.147579
RightShoulder -12.638621 22.229547 -39.304935
RightArm 38.363309 42.248761 -8.060673
RightForeArm -32.031594 -0.000000 16.515020
RightHand -5.463698 -0.000000 8.294472
RightHandThumb1 -24.326973 -0.000000 -32.862282
LeftUpLeg 6.676504 3.631298 6.104099
LeftLeg -8.596827 -0.000000 0.000000
LeftFoot -13.204865 21.829646 -9.267958
LeftToeBase 22.592917 -0.000000 -0.000000
RightUpLeg 9.448151 -12.766117 2.105947
RightLeg -4.540399 -0.000000 0.000000
RightFoot -8.829878 -33.486987 6.153803
RightToeBase 13.382866 -0.000000 -0.000000
3035
root -6.180276 35.146512 -9.376136 0.077356 11.077785 -3.635273
Spine -9.078554 -2.915364 1.578839
Head -0.839700 -35.733788 3.327379
LeftShoulder -21.583395 12.207009 -15.051903
LeftArm 19.200120 1.581623 -68.941656
LeftForeArm 14.223043 -0.000000 12.874289
LeftHand 2.050970 -0.000000 -6.704628
LeftHandThumb1 -26.253704 0.000000 33.147579
RightShoulder -12.685338 22.175402 -39.290487
RightArm 38.576394 42.432317 -8.081203
RightForeArm -32.203356 -0.000000 16.491528
RightHand -5.348507 -0.000000 7.988440
RightHandThumb1 -24.326973 -0.000000 -32.862282
LeftUpLeg 6.688280 3.726412 6.119076
LeftLeg -8.587495 -0.000000 0.000000
LeftFoot -13.218551 21.833600 -9.256912
LeftToeBase 22.611540 -0.000000 -0.000000
RightUpLeg 9.431678 -12.715233 2.118926
RightLeg -4.536730 -0.000000 0.000000
RightFoot -8.817696 -33.448403 6.150209
RightToeBase 13.347345 -0.000000 -0.000000
3036
root -6.180979 35.146361 -9.371322 0.085913 10.939703 -3.641922
Spine -9.076857 -2.919017 1.568712
Head -0.839780 -35.336369 3.615312
LeftShoulder -21.638081 12.231926 -15.078866
LeftArm 19.185100 1.524988 -68.990085
LeftForeArm 14.304511 -0.000000 12.892981
LeftHand 1.975709 -0.000000 -6.868761
LeftHandThumb1 -26.253704 0.000000 33.147579
RightShoulder -12.702864 22.191047 -39.289410
RightArm 38.733910 42.467514 -8.171669
RightForeArm -32.194538 -0.000000 16.479588
RightHand -5.362056 -0.000000 7.689504
RightHandThumb1 -24.326973 -0.000000 -32.862282
LeftUpLeg 6.727313 3.886171 6.128693
LeftLeg -8.607819 -0.000000 0.000000
LeftFoot -13.227014 21.821789 -9.266981
LeftToeBase 22.585443 -0.000000 -0.000000
RightUpLeg 9.426746 -12.617917 2.122773
RightLeg -4.554031 -0.000000 0.000000
RightFoot -8.797371 -33.405970 6.113131
RightToeBase 13.392553 -0.000000 -0.000000
3037
root -6.186610 35.145769 -9.369597 0.095501 10.830894 -3.655304
Spine -9.065800 -2.932653 1.531786
Head -0.834693 -35.033205 3.947594
LeftShoulder -21.664365 12.256257 -15.070163
LeftArm 19.186160 1.499249 -69.041127
LeftForeArm 14.244296 -0.000000 12.877095
LeftHand 1.982865 -0.000000 -6.801610
LeftHandThumb1 -26.253704 0.000000 33.147579
RightShoulder -12.749422 22.266867 -39.278928
RightArm 38.885162 42.428821 -8.244989
RightForeArm -32.188573 -0.000000 16.499255
RightHand -5.471072 -0.000000 7.468511
RightHandThumb1 -24.326973 -0.000000 -32.862282
LeftUpLeg 6.748415 4.015642 6.152593
LeftLeg -8.624260 -0.000000 0.000000
LeftFoot -13.236466 21.801428 -9.275046
LeftToeBase 22.624609 -0.000000 -0.000000
RightUpLeg 9.406136 -12.575929 2.141323
RightLeg -4.553954 -0.000000 0.000000
RightFoot -8.776363 -33.348776 6.077185
RightToeBase 13.376526 -0.000000 -0.000000
3038
root -6.193099 35.144984 -9.368598 0.118072 10.749418 -3.671958
Spine -9.063081 -2.987152 1.507136
Head -0.863522 -34.669446 4.273586
LeftShoulder -21.711448 12.260236 -15.057731
LeftArm 19.168681 1.460786 -69.097853
LeftForeArm 14.378562 0.000000 12.886477
LeftHand 1.914403 0.000000 -6.714844
LeftHandThumb1 -26.253704 0.000000 33.147579
RightShoulder -12.954685 22.734669 -39.523910
RightArm 39.322218 42.077405 -7.817831
RightForeArm -32.345817 -0.000000 16.622591
RightHand -5.987059 -0.000000 7.656126
RightHandThumb1 -24.326973 -0.000000 -32.862282
LeftUpLeg 6.744016 4.078112 6.178684
LeftLeg -8.628513 -0.000000 0.000000
LeftFoot -13.246080 21.829695 -9.266743
LeftToeBase 22.617262 -0.000000 -0.000000
RightUpLeg 9.375492 -12.552930 2.169319
RightLeg -4.561185 -0.000000 0.000000
RightFoot -8.751781 -33.313398 6.022012
RightToeBase 13.391704 -0.000000 -0.000000
3039
root -6.200401 35.144983 -9.368355 0.141712 10.651061 -3.694270
Spine -9.052941 -3.026968 1.486566
Head -0.901472 -34.319150 4.578398
LeftShoulder -21.794717 12.250344 -15.064372
LeftArm 19.198215 1.481357 -69.115413
LeftForeArm 14.413988 -0.000000 12.855176
LeftHand 2.003019 -0.000000 -6.432051
LeftHandThumb1 -26.253704 0.000000 33.147579
RightShoulder -13.088126 22.897989 -39.621981
RightArm 39.694723 42.152267 -7.452366
RightForeArm -32.694463 0.000000 16.772755
RightHand -6.134615 -0.000000 7.651697
RightHandThumb1 -24.326973 -0.000000 -32.862282
LeftUpLeg 6.735065 4.146302 6.211400
LeftLeg -8.620403 -0.000000 0.000000
LeftFoot -13.267346 21.858935 -9.267349
LeftToeBase 22.583607 -0.000000 -0.000000
RightUpLeg 9.339241 -12.492463 2.206911
RightLeg -4.566009 -0.000000 0.000000
RightFoot -8.745627 -33.283535 6.036725
RightToeBase 13.397522 -0.000000 -0.000000
3040
root -6.204137 35.144867 -9.363487 0.137816 10.524468 -3.714209
Spine -9.033060 -3.041626 1.479465
Head -0.904394 -33.951693 4.819377
LeftShoulder -21.873557 12.249140 -15.085695
LeftArm 19.226474 1.549553 -69.112315
LeftForeArm 14.325646 -0.000000 12.799102
LeftHand 2.006576 -0.000000 -6.734552
LeftHandThumb1 -26.253704 0.000000 33.147579
RightShoulder -13.077854 22.594079 -39.482935
RightArm 39.752301 42.427105 -7.715380
RightForeArm -32.353649 0.000000 16.639662
RightHand -5.848689 -0.000000 6.780884
RightHandThumb1 -24.326973 -0.000000 -32.862282
LeftUpLeg 6.775462 4.217037 6.238657
LeftLeg -8.623340 -0.000000 0.000000
LeftFoot -13.301881 21.902088 -9.276863
LeftToeBase 22.615679 -0.000000 -0.000000
RightUpLeg 9.340735 -12.438419 2.224177
RightLeg -4.576596 -0.000000 0.000000
RightFoot -8.727405 -33.217325 6.017016
RightToeBase 13.412228 -0.000000 -0.000000
